<svg width="80" height="80" viewBox="0 0 80 80" fill="none" xmlns="http://www.w3.org/2000/svg">
  <defs>
    <linearGradient id="snowCloud" x1="18" y1="28" x2="64" y2="64" gradientUnits="userSpaceOnUse">
      <stop stop-color="#F5F8FF" />
      <stop offset="1" stop-color="#DCE7FF" />
    </linearGradient>
  </defs>
  <path d="M60 56H24C14.611 56 7 48.389 7 39C7 29.611 14.611 22 24 22C25.966 22 27.887 22.27 29.733 22.794C33.254 16.203 40.226 11.5 48.5 11.5C59.926 11.5 69.5 21.074 69.5 32.5C69.5 33.194 69.471 33.88 69.415 34.558C75.502 36.406 80 42.003 80 48.75C80 56.24 73.99 62.25 66.5 62.25H60Z" fill="url(#snowCloud)" />
  <g stroke="#7EC8E3" stroke-width="4" stroke-linecap="round">
    <line x1="28" y1="62" x2="28" y2="72" />
    <line x1="24" y1="66" x2="32" y2="68" />
    <line x1="32" y1="66" x2="24" y2="68" />

    <line x1="42" y1="62" x2="42" y2="74" />
    <line x1="38" y1="66" x2="46" y2="70" />
    <line x1="46" y1="66" x2="38" y2="70" />

    <line x1="56" y1="62" x2="56" y2="72" />
    <line x1="52" y1="66" x2="60" y2="68" />
    <line x1="60" y1="66" x2="52" y2="68" />
  </g>
</svg>
